<svg xmlns="http://www.w3.org/2000/svg" viewBox="0 0 64 64" role="img" aria-label="Fire">
  <defs>
    <linearGradient id="gOuter" x1="0" y1="1" x2="0" y2="0">
      <stop offset="0" stop-color="#ff6b6b"/>
      <stop offset="0.55" stop-color="#ff922b"/>
      <stop offset="1" stop-color="#ffd43b"/>
    </linearGradient>
    <linearGradient id="gInner" x1="0" y1="1" x2="0" y2="0">
      <stop offset="0" stop-color="#fff3bf"/>
      <stop offset="0.7" stop-color="#ffd43b"/>
      <stop offset="1" stop-color="#ffb703"/>
    </linearGradient>
  </defs>

  <!-- Outer flame -->
  <path
    fill="url(#gOuter)"
    d="M32 2c4 10-2 14-2 20 0 4 3 6 6 10 3 4 4 8 4 12 0 8-6 14-14 14S12 52 12 44c0-7 4-12 9-18 4-5 6-9 6-14 0-4-1-7 5-10z"
  />

  <!-- Inner flame -->
  <path
    fill="url(#gInner)"
    d="M31 22c2 5-1 7-1 10 0 2 2 4 4 6 2 3 3 5 3 8 0 5-4 9-9 9s-9-4-9-9c0-4 2-7 6-11 3-3 4-6 4-8 0-2 0-3 2-5z"
    opacity="0.95"
  />
</svg>
